<mxfile host="app.diagrams.net" agent="Mozilla/5.0 (Macintosh; Intel Mac OS X 10_15_7) AppleWebKit/537.36 (KHTML, like Gecko) Chrome/137.0.0.0 Safari/537.36" version="26.2.1">
  <diagram name="Page-1" id="8E8iF4HCeSLBtAPHDV2s">
    <mxGraphModel dx="1857" dy="1200" grid="1" gridSize="10" guides="1" tooltips="1" connect="1" arrows="1" fold="1" page="1" pageScale="1" pageWidth="827" pageHeight="1169" math="0" shadow="0">
      <root>
        <mxCell id="0" />
        <mxCell id="1" parent="0" />
        <mxCell id="UrT-R7ICKshtuGDuVVqT-1" value="" style="whiteSpace=wrap;strokeWidth=2;" vertex="1" parent="1">
          <mxGeometry x="20" y="317" width="698" height="630" as="geometry" />
        </mxCell>
        <mxCell id="UrT-R7ICKshtuGDuVVqT-2" value="" style="whiteSpace=wrap;strokeWidth=2;" vertex="1" parent="1">
          <mxGeometry x="44" y="446" width="506" height="331" as="geometry" />
        </mxCell>
        <mxCell id="UrT-R7ICKshtuGDuVVqT-3" value="Client" style="ellipse;aspect=fixed;strokeWidth=2;whiteSpace=wrap;" vertex="1" parent="1">
          <mxGeometry x="155" y="220" width="47" height="47" as="geometry" />
        </mxCell>
        <mxCell id="UrT-R7ICKshtuGDuVVqT-4" value="Application Load Balancer" style="whiteSpace=wrap;strokeWidth=2;" vertex="1" parent="1">
          <mxGeometry x="55" y="342" width="247" height="54" as="geometry" />
        </mxCell>
        <mxCell id="UrT-R7ICKshtuGDuVVqT-5" value="EKS Cluster" style="whiteSpace=wrap;strokeWidth=2;" vertex="1" parent="1">
          <mxGeometry x="389" y="480" width="141" height="54" as="geometry" />
        </mxCell>
        <mxCell id="UrT-R7ICKshtuGDuVVqT-6" value="Nginx Pod" style="whiteSpace=wrap;strokeWidth=2;" vertex="1" parent="1">
          <mxGeometry x="123" y="594" width="130" height="54" as="geometry" />
        </mxCell>
        <mxCell id="UrT-R7ICKshtuGDuVVqT-7" value="Rails Pod" style="whiteSpace=wrap;strokeWidth=2;" vertex="1" parent="1">
          <mxGeometry x="177" y="698" width="124" height="54" as="geometry" />
        </mxCell>
        <mxCell id="UrT-R7ICKshtuGDuVVqT-8" value="Service_NodePort" style="whiteSpace=wrap;strokeWidth=2;" vertex="1" parent="1">
          <mxGeometry x="79" y="480" width="198" height="54" as="geometry" />
        </mxCell>
        <mxCell id="UrT-R7ICKshtuGDuVVqT-9" value="Amazon RDS" style="shape=cylinder3;boundedLbl=1;backgroundOutline=1;size=10;strokeWidth=2;whiteSpace=wrap;" vertex="1" parent="1">
          <mxGeometry x="63" y="849" width="103" height="73" as="geometry" />
        </mxCell>
        <mxCell id="UrT-R7ICKshtuGDuVVqT-10" value="Amazon S3" style="shape=cylinder3;boundedLbl=1;backgroundOutline=1;size=10;strokeWidth=2;whiteSpace=wrap;" vertex="1" parent="1">
          <mxGeometry x="250" y="850" width="92" height="71" as="geometry" />
        </mxCell>
        <mxCell id="UrT-R7ICKshtuGDuVVqT-25" style="edgeStyle=orthogonalEdgeStyle;rounded=0;orthogonalLoop=1;jettySize=auto;html=1;entryX=1;entryY=0.5;entryDx=0;entryDy=0;" edge="1" parent="1" source="UrT-R7ICKshtuGDuVVqT-11" target="UrT-R7ICKshtuGDuVVqT-7">
          <mxGeometry relative="1" as="geometry">
            <Array as="points">
              <mxPoint x="632" y="725" />
            </Array>
          </mxGeometry>
        </mxCell>
        <mxCell id="UrT-R7ICKshtuGDuVVqT-11" value="Amazon ECR" style="shape=cylinder3;boundedLbl=1;backgroundOutline=1;size=10;strokeWidth=2;whiteSpace=wrap;" vertex="1" parent="1">
          <mxGeometry x="580" y="471" width="103" height="73" as="geometry" />
        </mxCell>
        <mxCell id="UrT-R7ICKshtuGDuVVqT-12" value="GitHub Actions" style="whiteSpace=wrap;strokeWidth=2;" vertex="1" parent="1">
          <mxGeometry x="753" y="342" width="166" height="54" as="geometry" />
        </mxCell>
        <mxCell id="UrT-R7ICKshtuGDuVVqT-13" value="" style="curved=1;startArrow=none;endArrow=block;exitX=0.5;exitY=1;entryX=0.5;entryY=0;rounded=0;" edge="1" parent="1" source="UrT-R7ICKshtuGDuVVqT-3" target="UrT-R7ICKshtuGDuVVqT-4">
          <mxGeometry relative="1" as="geometry">
            <Array as="points" />
          </mxGeometry>
        </mxCell>
        <mxCell id="UrT-R7ICKshtuGDuVVqT-14" value="" style="curved=1;startArrow=none;endArrow=block;exitX=0.5;exitY=1;entryX=0.5;entryY=0;rounded=0;" edge="1" parent="1" source="UrT-R7ICKshtuGDuVVqT-4" target="UrT-R7ICKshtuGDuVVqT-8">
          <mxGeometry relative="1" as="geometry">
            <Array as="points" />
          </mxGeometry>
        </mxCell>
        <mxCell id="UrT-R7ICKshtuGDuVVqT-15" value="" style="curved=1;startArrow=none;endArrow=block;exitX=0.5;exitY=1;entryX=0.46;entryY=-0.01;rounded=0;" edge="1" parent="1" source="UrT-R7ICKshtuGDuVVqT-8" target="UrT-R7ICKshtuGDuVVqT-6">
          <mxGeometry relative="1" as="geometry">
            <Array as="points">
              <mxPoint x="178" y="569" />
            </Array>
          </mxGeometry>
        </mxCell>
        <mxCell id="UrT-R7ICKshtuGDuVVqT-16" value="" style="curved=1;startArrow=none;endArrow=block;exitX=0.5;exitY=0.99;entryX=0.29;entryY=-0.01;rounded=0;" edge="1" parent="1" source="UrT-R7ICKshtuGDuVVqT-6" target="UrT-R7ICKshtuGDuVVqT-7">
          <mxGeometry relative="1" as="geometry">
            <Array as="points">
              <mxPoint x="188" y="673" />
            </Array>
          </mxGeometry>
        </mxCell>
        <mxCell id="UrT-R7ICKshtuGDuVVqT-17" value="" style="curved=1;startArrow=none;endArrow=block;exitX=0;exitY=0.91;entryX=0.41;entryY=0;rounded=0;" edge="1" parent="1" source="UrT-R7ICKshtuGDuVVqT-7" target="UrT-R7ICKshtuGDuVVqT-9">
          <mxGeometry relative="1" as="geometry">
            <Array as="points">
              <mxPoint x="96" y="777" />
              <mxPoint x="96" y="813" />
            </Array>
          </mxGeometry>
        </mxCell>
        <mxCell id="UrT-R7ICKshtuGDuVVqT-18" value="" style="curved=1;startArrow=none;endArrow=block;exitX=0.66;exitY=0.99;entryX=0.4;entryY=0;rounded=0;" edge="1" parent="1" source="UrT-R7ICKshtuGDuVVqT-7" target="UrT-R7ICKshtuGDuVVqT-10">
          <mxGeometry relative="1" as="geometry">
            <Array as="points">
              <mxPoint x="277" y="777" />
              <mxPoint x="277" y="813" />
            </Array>
          </mxGeometry>
        </mxCell>
        <mxCell id="UrT-R7ICKshtuGDuVVqT-19" value="" style="curved=1;startArrow=none;endArrow=block;exitX=0;exitY=0.89;entryX=0.5;entryY=0;rounded=0;" edge="1" parent="1" source="UrT-R7ICKshtuGDuVVqT-12" target="UrT-R7ICKshtuGDuVVqT-11">
          <mxGeometry relative="1" as="geometry">
            <Array as="points">
              <mxPoint x="632" y="421" />
            </Array>
          </mxGeometry>
        </mxCell>
        <mxCell id="UrT-R7ICKshtuGDuVVqT-20" value="" style="curved=1;startArrow=none;endArrow=block;exitX=0;exitY=0.71;entryX=0.5;entryY=0;rounded=0;" edge="1" parent="1" source="UrT-R7ICKshtuGDuVVqT-12" target="UrT-R7ICKshtuGDuVVqT-5">
          <mxGeometry relative="1" as="geometry">
            <Array as="points">
              <mxPoint x="460" y="421" />
            </Array>
          </mxGeometry>
        </mxCell>
        <mxCell id="UrT-R7ICKshtuGDuVVqT-22" value="" style="curved=1;startArrow=none;endArrow=block;exitX=0;exitY=0.61;entryX=0.69;entryY=-0.01;rounded=0;" edge="1" parent="1" source="UrT-R7ICKshtuGDuVVqT-11" target="UrT-R7ICKshtuGDuVVqT-6">
          <mxGeometry relative="1" as="geometry">
            <Array as="points">
              <mxPoint x="430" y="590" />
              <mxPoint x="236" y="569" />
            </Array>
          </mxGeometry>
        </mxCell>
        <mxCell id="UrT-R7ICKshtuGDuVVqT-23" value="IRSA" style="curved=1;dashed=1;dashPattern=2 3;startArrow=none;endArrow=block;exitX=0.81;exitY=0.99;entryX=0.59;entryY=0;rounded=0;" edge="1" parent="1" source="UrT-R7ICKshtuGDuVVqT-7" target="UrT-R7ICKshtuGDuVVqT-10">
          <mxGeometry relative="1" as="geometry">
            <Array as="points">
              <mxPoint x="314" y="777" />
              <mxPoint x="314" y="813" />
            </Array>
          </mxGeometry>
        </mxCell>
        <mxCell id="UrT-R7ICKshtuGDuVVqT-24" value="IRSA" style="curved=1;dashed=1;dashPattern=2 3;startArrow=none;endArrow=block;exitX=0.13;exitY=0.99;entryX=0.67;entryY=0;rounded=0;" edge="1" parent="1" source="UrT-R7ICKshtuGDuVVqT-7" target="UrT-R7ICKshtuGDuVVqT-9">
          <mxGeometry relative="1" as="geometry">
            <Array as="points">
              <mxPoint x="150" y="777" />
              <mxPoint x="150" y="813" />
            </Array>
          </mxGeometry>
        </mxCell>
        <mxCell id="UrT-R7ICKshtuGDuVVqT-26" value="&lt;b&gt;AWS&lt;/b&gt;" style="text;html=1;align=center;verticalAlign=middle;resizable=0;points=[];autosize=1;strokeColor=none;fillColor=none;fontSize=21;" vertex="1" parent="1">
          <mxGeometry x="379" y="277" width="70" height="40" as="geometry" />
        </mxCell>
        <mxCell id="UrT-R7ICKshtuGDuVVqT-27" value="&lt;b&gt;k8s&lt;/b&gt;" style="text;html=1;align=center;verticalAlign=middle;resizable=0;points=[];autosize=1;strokeColor=none;fillColor=none;fontSize=14;" vertex="1" parent="1">
          <mxGeometry x="305" y="520" width="50" height="30" as="geometry" />
        </mxCell>
      </root>
    </mxGraphModel>
  </diagram>
</mxfile>
